HIERARCHY
ROOT Hips
{
    OFFSET 0.0 0.0 0.0
    CHANNELS 6 Xposition Yposition Zposition Zrotation Xrotation Yrotation
    JOINT LeftHipJoint
    {
        OFFSET 0.1 0.0 0.0
        CHANNELS 3 Zrotation Xrotation Yrotation
        JOINT LeftUpLeg
        {
            OFFSET 123.97552323086671 0.0 0.0
            CHANNELS 3 Zrotation Xrotation Yrotation
            JOINT LeftLeg
            {
                OFFSET 0.0 0.0 -410.4929110881588
                CHANNELS 3 Zrotation Xrotation Yrotation
                JOINT LeftFoot
                {
                    OFFSET 0.0 0.0 -408.98201641238404
                    CHANNELS 3 Zrotation Xrotation Yrotation
                    End Site
                    {
                        OFFSET 0.0 -0.1 0.0
                    }
                }
            }
        }
    }
    JOINT LowerBack
    {
        OFFSET 0.0 0.0 0.1
        CHANNELS 3 Zrotation Xrotation Yrotation
        JOINT Spine
        {
            OFFSET 0.0 0.0 220.85087237975543
            CHANNELS 3 Zrotation Xrotation Yrotation
            JOINT Spine1
            {
                OFFSET 0.0 0.0 251.7691968667506
                CHANNELS 3 Zrotation Xrotation Yrotation
                JOINT LeftShoulder
                {
                    OFFSET 0.1 0.0 0.0
                    CHANNELS 3 Zrotation Xrotation Yrotation
                    JOINT LeftArm
                    {
                        OFFSET 142.39313577982597 0.0 0.0
                        CHANNELS 3 Zrotation Xrotation Yrotation
                        JOINT LeftForeArm
                        {
                            OFFSET 263.415456754332 0.0 0.0
                            CHANNELS 3 Zrotation Xrotation Yrotation
                            JOINT LeftHand
                            {
                                OFFSET 238.0282159015557 0.0 0.0
                                CHANNELS 3 Zrotation Xrotation Yrotation
                                End Site
                                {
                                    OFFSET 0.1 0.0 0.0
                                }
                            }
                        }
                    }
                }
                JOINT Neck
                {
                    OFFSET 0.0 0.0 0.1
                    CHANNELS 3 Zrotation Xrotation Yrotation
                    JOINT Neck1
                    {
                        OFFSET 0.0 0.0 103.29535183309531
                        CHANNELS 3 Zrotation Xrotation Yrotation
                        End Site
                        {
                            OFFSET 0.0 0.0 114.43597945440928
                        }
                    }
                }
                JOINT RightShoulder
                {
                    OFFSET -0.1 0.0 0.0
                    CHANNELS 3 Zrotation Xrotation Yrotation
                    JOINT RightArm
                    {
                        OFFSET -142.39313577982597 0.0 0.0
                        CHANNELS 3 Zrotation Xrotation Yrotation
                        JOINT RightForeArm
                        {
                            OFFSET -263.415456754332 0.0 0.0
                            CHANNELS 3 Zrotation Xrotation Yrotation
                            JOINT RightHand
                            {
                                OFFSET -238.0282159015557 0.0 0.0
                                CHANNELS 3 Zrotation Xrotation Yrotation
                                End Site
                                {
                                    OFFSET -0.1 0.0 0.0
                                }
                            }
                        }
                    }
                }
            }
        }
    }
    JOINT RightHipJoint
    {
        OFFSET -0.1 0.0 0.0
        CHANNELS 3 Zrotation Xrotation Yrotation
        JOINT RightUpLeg
        {
            OFFSET -123.97552323086671 0.0 0.0
            CHANNELS 3 Zrotation Xrotation Yrotation
            JOINT RightLeg
            {
                OFFSET 0.0 0.0 -410.4929110881588
                CHANNELS 3 Zrotation Xrotation Yrotation
                JOINT RightFoot
                {
                    OFFSET 0.0 0.0 -408.98201641238404
                    CHANNELS 3 Zrotation Xrotation Yrotation
                    End Site
                    {
                        OFFSET 0.0 -0.1 0.0
                    }
                }
            }
        }
    }
}
MOTION
Frames: 8
Frame Time: 0.03333333333333333
0.0 0.0 830.0663109586695 26.403625996153682 8.912497235244704 3.442143614143153 0.0 0.0 0.0 -0.637191369252185 -21.367513847070633 0.10614168945186371 0.6646099593590172 19.6606844425723 0.0949638859786775 0.0 0.0 3.975693351829396e-16 0.0 0.0 0.0 0.12190331512680724 4.263393762484106 1.4518118191601284 3.180051389163113 1.9981128801713575e-15 3.4225823776242507e-16 0.0 0.0 -3.9756933518293955e-16 -37.31547047922051 21.378078049294015 79.23041296617967 -55.116875706960236 -2.9429867402813164e-15 5.639374200533807e-15 0.0 0.0 1.5902773407317584e-15 0.0 0.0 -3.9756933518293955e-16 -8.63838885148426 -2.2969247982149494 -1.333331827760881 0.0 0.0 -3.9756933518293955e-16 26.353901308574983 6.910323444853254 -73.26303278635582 47.484917465895414 -1.2805746870464783e-15 -2.91136678429141e-15 0.0 0.0 1.5902773407317584e-15 0.0 0.0 0.0 -0.6166485108104838 -20.582506114123852 -3.1458543349880346 -0.518294883625944 20.345169600404525 -1.1042048434966933 0.0 0.0 0.0
0.0 0.0 830.0663109586695 26.347541304518668 9.055229925438615 3.505417969462682 0.0 0.0 -3.975693351829396e-16 -0.6264052879332235 -21.573217963906384 0.028793069255712084 0.6264380391132061 19.828257150933705 0.0592554468341272 0.0 0.0 1.987846675914698e-16 0.0 0.0 -3.975693351829396e-16 0.11749453607602676 4.224463879284729 1.3727159414264867 3.1825968607120103 -4.416172595668908e-17 -1.589664040734834e-15 0.0 0.0 7.951386703658791e-16 -37.31863147256309 21.449954923565883 79.31629296460989 -54.97695303139722 6.9963960403736256e-15 7.225629610216622e-15 0.0 0.0 -1.1927080055488188e-15 0.0 0.0 7.951386703658791e-16 -8.72635963968656 -2.262337348805039 -1.3675786042425266 0.0 0.0 7.951386703658791e-16 26.523511745812065 7.126756798753462 -73.226288834261 47.75193291721093 -7.10410502973646e-15 -3.3366470501172664e-16 0.0 0.0 -1.5902773407317584e-15 0.0 0.0 -3.975693351829396e-16 -0.6044056000463638 -20.725999679841678 -3.2620086058476376 -0.5767631495434223 20.290815155576695 -1.0501300095201878 0.0 0.0 0.0
0.0 0.0 830.0663109586695 26.35693324218226 9.2428042069781 3.5291877791961572 0.0 0.0 0.0 -0.5945082831767952 -21.923708595674068 -0.029701086064465813 0.567519810557795 19.9062302572345 0.02603393162739963 3.1805546814635164e-15 -1.9878466759146977e-16 -1.9878466759146977e-16 0.0 0.0 0.0 0.11071877202763918 4.26873057530798 1.3371638460916735 3.263260628682873 -1.2601454970814107e-15 -2.3504883021803476e-15 0.0 0.0 3.975693351829396e-16 -37.2410261476055 21.445135234420448 79.09128093196054 -55.196194082827546 9.561087213289936e-15 2.306333363128597e-15 0.0 0.0 -1.1927080055488192e-15 0.0 0.0 3.975693351829396e-16 -8.864146005511387 -2.2851554451524865 -1.3675781815970551 0.0 0.0 3.975693351829396e-16 26.738936443613206 6.8626892684683245 -72.71300450452141 48.079745456605735 -1.295669845048058e-15 -2.9046803153553117e-15 0.0 0.0 -1.5902773407317584e-15 0.0 0.0 0.0 -0.5696613905016665 -20.925148194935822 -3.338140895260865 -0.6402994438660881 20.108981346224464 -0.9852110174068778 0.0 0.0 0.0
0.0 0.0 830.0663109586695 26.409907870977797 9.297340654869885 3.523048533997484 0.0 -1.987846675914698e-16 0.0 -0.5266419174602638 -21.958561643591104 -0.13944937097092217 0.45924149246958246 19.833893278223183 0.12492977386964962 0.0 0.0 -1.1927080055488188e-15 0.0 -1.987846675914698e-16 0.0 0.10019983544483108 4.366792809306955 1.3861010086882173 3.304130435648125 7.948081548129106e-16 -2.29238337569204e-17 0.0 0.0 -7.951386703658792e-16 -37.30955777118541 21.519303197930547 78.88151868988585 -55.40762422540608 -7.393214518809177e-16 1.4079722338290497e-15 0.0 0.0 2.3854160110976376e-15 0.0 0.0 -7.951386703658792e-16 -8.97000574714673 -2.1586407931299876 -1.468859135748555 0.0 0.0 -7.951386703658792e-16 26.964931349980088 6.658741002661944 -72.41387173016003 48.1567566687887 1.0317613978672615e-14 -8.09429547133972e-15 0.0 0.0 0.0 0.0 -1.987846675914698e-16 0.0 -0.5011175073424508 -20.811795407819307 -3.4154605389953545 -0.7213880674137735 19.736432530836787 -0.9014701536815765 0.0 0.0 -3.975693351829396e-16
0.0 0.0 830.0663109586695 26.44217291897843 9.36746486332992 3.4523038241876054 3.1805546814635164e-15 0.0 0.0 -0.4841605606896306 -22.013296135831883 -0.12247032334258569 0.421080567611469 19.740082149444586 0.15240934620791147 0.0 0.0 1.987846675914698e-16 3.1805546814635164e-15 0.0 0.0 0.09353421285112809 4.44442851006683 1.483717800483756 3.31671260583959 -1.5435890586189833e-15 1.6356334733067516e-15 0.0 0.0 -3.975693351829396e-16 -37.10125164739412 21.610208013009256 78.84178521491222 -55.58333286680588 2.158186896774639e-15 -1.7737705866310772e-14 0.0 0.0 -2.3854160110976376e-15 0.0 0.0 -3.975693351829396e-16 -8.972955855544589 -2.087338886671653 -1.527877353923427 0.0 0.0 -3.975693351829396e-16 27.045802876588144 6.769116812990628 -72.22490369002324 48.616565763308394 5.797157433565498e-15 -2.6185259245564585e-15 0.0 0.0 0.0 3.1805546814635164e-15 0.0 0.0 -0.45949414732783456 -20.801833632989496 -3.413354082725999 -0.7542436245067737 19.540147230961 -0.8300823376864058 0.0 0.0 3.975693351829396e-16
0.0 0.0 830.0663109586695 26.46425964652789 9.512035840080832 3.449905704925632 0.0 0.0 -7.951386703658792e-16 -0.4735523245885276 -22.06068559413886 -0.1596233102119149 0.39406168288271753 19.62179192633862 0.19129460957039188 0.0 0.0 0.0 0.0 0.0 -7.951386703658792e-16 0.09303070160379243 4.529694152117326 1.5074273093520016 3.4263449191322675 4.406965149065432e-15 1.0614316233452279e-15 0.0 0.0 -3.9756933518293955e-16 -37.019343461369694 21.54726554190386 78.59960736540798 -56.09473982445637 8.610983399971922e-15 1.089430327943598e-14 -4.4139062980501586e-32 3.1805546814635168e-15 1.5902773407317584e-15 0.0 0.0 -3.9756933518293955e-16 -9.150004340568959 -2.119543505576572 -1.6682794344699121 0.0 0.0 -3.9756933518293955e-16 27.116970523791615 6.505837257366619 -71.59143393662427 49.32803584502615 6.63617077832086e-15 1.4451970088726575e-14 0.0 0.0 1.5902773407317584e-15 0.0 0.0 -7.951386703658792e-16 -0.44893741091992084 -20.824258817185797 -3.4605604214955927 -0.7759027805192641 19.398742294726635 -0.7733645130357245 0.0 0.0 -3.975693351829396e-16
0.0 0.0 830.0663109586695 26.602538033609118 9.700937350625281 3.428265799578234 0.0 0.0 -3.975693351829396e-16 -0.4464347713520655 -22.163325765546283 -0.21298092138217015 0.3425557787450558 19.370663855158543 0.29564197974599965 0.0 0.0 -1.987846675914698e-16 0.0 0.0 -3.975693351829396e-16 0.08826266293448032 4.580990149891772 1.5220290401892222 3.542632914419848 1.2289019197808876e-17 3.9737936066806547e-16 0.0 0.0 -7.951386703658792e-16 -37.064116331099925 21.599870997245343 78.57777636649257 -56.12288420529087 -2.0585649454589924e-15 -2.8995207306642557e-15 0.0 0.0 1.1927080055488188e-15 0.0 0.0 -7.951386703658792e-16 -9.274865997614297 -2.0685331337144057 -1.8388269274706968 0.0 0.0 -7.951386703658792e-16 27.45630415184971 6.416757503098071 -71.04508453056404 49.77801003804266 1.3385737936975063e-15 2.885160009532533e-15 -6.3611093629270335e-15 8.827812596100317e-32 -1.5902773407317584e-15 0.0 0.0 -3.975693351829396e-16 -0.4237752726013655 -20.939874363206556 -3.4664757620264495 -0.7969806728788681 19.217781619700123 -0.7357529322746934 0.0 0.0 0.0
0.0 0.0 830.0663109586695 26.732193790315133 9.93992663322191 3.353611439706598 0.0 0.0 7.951386703658791e-16 -0.4030844101436628 -22.51068160900979 -0.1519391894245183 0.317851914795905 19.362224097083264 0.4052269825898464 0.0 0.0 1.987846675914698e-16 0.0 0.0 7.951386703658791e-16 0.07843229077670222 4.5855015003830975 1.6494530065358146 3.548000910227622 3.625639598067688e-15 1.4787464298758655e-15 0.0 0.0 0.0 -37.05298019828519 21.646606520758844 78.4857770982633 -56.46545272055286 -5.642153800158926e-15 1.050815583941237e-14 0.0 0.0 1.1927080055488188e-15 0.0 0.0 0.0 -9.535517516425394 -2.007763531677116 -2.0563366049942062 0.0 0.0 0.0 27.60228987219341 6.2997000530413265 -70.61609700804603 50.14368709191807 -1.347773895554043e-15 -2.880873757776028e-15 0.0 0.0 -1.5902773407317584e-15 0.0 0.0 7.951386703658791e-16 -0.38274738296847 -21.265470645580198 -3.409311891526801 -0.826062412279951 19.296361047330645 -0.698639490703085 0.0 0.0 0.0
